<?xml version="1.0" encoding="UTF-8"?><svg id="svg8" xmlns="http://www.w3.org/2000/svg" viewBox="0 0 600.8 403.18"><defs><style>.cls-1{letter-spacing:-.02em;}.cls-2{letter-spacing:-.03em;}.cls-3{letter-spacing:-.1em;}.cls-4{fill:#d3d3d3;stroke:rgba(78,78,78,.99);}.cls-4,.cls-5,.cls-6{stroke-linecap:round;stroke-width:.8px;}.cls-7{letter-spacing:-.01em;}.cls-8{letter-spacing:-.01em;}.cls-9{letter-spacing:0em;}.cls-10{font-family:Calibri, Calibri;font-size:22px;}.cls-11{letter-spacing:0em;}.cls-5{fill:#efefef;stroke:rgba(78,78,78,.99);}.cls-12{fill:#a9a9a9;stroke-width:0px;}.cls-13{letter-spacing:-.02em;}.cls-14{letter-spacing:0em;}.cls-6{fill:none;stroke:#4e4e4e;}.cls-15{fill:#575757;fill-rule:evenodd;stroke:#575757;}.cls-16{letter-spacing:-.01em;}</style></defs><g id="layer1"><rect id="rect815" class="cls-5" x=".4" y=".4" width="600" height="402.38"/><rect id="rect842" class="cls-4" x="60.17" y="243.34" width="197" height="97.58"/><rect id="rect844" class="cls-4" x="340.47" y="243.34" width="197" height="97.58"/><ellipse id="path850" class="cls-12" cx="386.36" cy="291.51" rx="29.8" ry="29.98"/><rect id="rect852" class="cls-12" x="427.89" y="269.6" width="81.82" height="18.29"/><rect id="rect854" class="cls-12" x="427.89" y="295.94" width="56.57" height="18.29"/><path id="path1005" class="cls-15" d="m332.78,295.07l-6.96,4.05v-8.1l6.96,4.05Z"/><rect id="rect1458" class="cls-12" x="99.57" y="269.62" width="118.19" height="18.29"/><rect id="rect1462" class="cls-12" x="99.57" y="295.78" width="52.53" height="18.29"/><line class="cls-6" x1="268.4" y1="295.07" x2="328.14" y2="295.07"/></g><text class="cls-10" transform="translate(62.94 87.28)"><tspan x="0" y="0">Dies i</tspan><tspan class="cls-16" x="48.16" y="0">s</tspan><tspan x="56.51" y="0">t nur ein Pl</tspan><tspan class="cls-9" x="153.56" y="0">a</tspan><tspan x="163.89" y="0">tzhal</tspan><tspan class="cls-8" x="207.1" y="0">t</tspan><tspan x="214.23" y="0">e</tspan><tspan class="cls-3" x="225.18" y="0">r</tspan><tspan x="230.63" y="0">.</tspan><tspan x="0" y="26.4">Um ein neues Chart </tspan><tspan class="cls-11" x="181.62" y="26.4">z</tspan><tspan x="190.2" y="26.4">u e</tspan><tspan class="cls-1" x="217.68" y="26.4">r</tspan><tspan class="cls-16" x="224.97" y="26.4">s</tspan><tspan class="cls-8" x="233.33" y="26.4">t</tspan><tspan x="240.46" y="26.4">ellen, klic</tspan><tspan class="cls-2" x="323.88" y="26.4">k</tspan><tspan x="333.17" y="26.4">en Sie bi</tspan><tspan class="cls-8" x="408.33" y="26.4">tt</tspan><tspan x="422.05" y="26.4">e </tspan><tspan class="cls-7" x="0" y="52.8">r</tspan><tspan x="7.38" y="52.8">ec</tspan><tspan class="cls-9" x="27.63" y="52.8">h</tspan><tspan x="38.98" y="52.8">ts neben dem Bild auf den „Bearbei</tspan><tspan class="cls-8" x="355.82" y="52.8">t</tspan><tspan x="362.96" y="52.8">e</tspan><tspan class="cls-13" x="373.9" y="52.8">n</tspan><tspan x="385.06" y="52.8">“ Bu</tspan><tspan class="cls-14" x="422.77" y="52.8">tt</tspan><tspan x="436.51" y="52.8">on</tspan></text></svg>